# xmcd CD database file
# Copyright (C) 1993-1996 Ti Kan
#
# Track frame offsets:
#	150
#	16450
#	28887
#	43075
#	58000
#	73375
#	86712
#	100475
#	114000
#	127062
#	140562
#	154460
#	170262
#	184485
#	198337
#	211450
#	224055
#	236875
#	250662
#	264637
#	278890
#	292027
#	304387
#	316812
#
# Disc length: 4379 seconds
#
# Revision: 1
# Processed by: cddbd v1.4b41PL1 Copyright (c) Steve Scherf et al.
# Submitted via: CDValet v3.31 - Copyright (c) 1997 Greg Leichner
#
DISCID=88111918
DTITLE=East Coast Blues - The Essential Recordings of East Coas
DTITLE=t Blues
DYEAR=1900
DGENRE=
TTITLE0=Crow Jane Blues (Julius Daniels)
TTITLE1=You Gonna Quit Me Blues (Blind Blake)
TTITLE2=Church Bells Blues ( Luke Jordan)
TTITLE3=Pick Poor Robin Clean (Luke Jordan)
TTITLE4=Cocaine Blues (Luke Jordan)
TTITLE5=Barbershop Rag (William Moore)
TTITLE6=Old Country Rock (William Moore)
TTITLE7=Raggin' the Blues (William Moore)
TTITLE8=Every Day In the Week Blues (Pink Anderson and Simmie Doo
TTITLE8=ley
TTITLE9=Brownie Blues (Tarter and Gay)
TTITLE10=Unknown Blues (Tarter and Gay)
TTITLE11=Dupree Blues (Willie Walker)
TTITLE12=South Carolina Rag (Willie Walker)
TTITLE13=Good Gal (Josh White)
TTITLE14=Low Cotton (Josh White)
TTITLE15=Blood Red River (Josh White)
TTITLE16=I'm Throwin' Up My Hands (Blind Gary Davis)
TTITLE17=Cross And Evil Woman Blues (Blind Gary Davis)
TTITLE18=Farewell To You Baby (Carl Martin)
TTITLE19=Badly Mistreated Man (Carl Martin)
TTITLE20=Crow Jane (Carl Martin)
TTITLE21=Old Time Blues (Carl Martin)
TTITLE22=Picking My Tomatoes (Brownie and McGhee)
TTITLE23=Dealing With The Devil (Brownie and McGhee)
EXTD=
EXTT0=
EXTT1=
EXTT2=
EXTT3=
EXTT4=
EXTT5=
EXTT6=
EXTT7=
EXTT8=
EXTT9=
EXTT10=
EXTT11=
EXTT12=
EXTT13=
EXTT14=
EXTT15=
EXTT16=
EXTT17=
EXTT18=
EXTT19=
EXTT20=
EXTT21=
EXTT22=
EXTT23=
PLAYORDER=
